<svg xmlns="http://www.w3.org/2000/svg" width="784.063" height="224.557" viewBox="0 0 207.45 59.414"><g aria-label="POS" style="line-height:1.25" font-weight="400" font-size="55.931" font-family="League Spartan" fill="#333" stroke-width=".583"><path d="M0 6.636v46.142h10.515V35.664h6.32c9.005 0 15.773-5.314 15.773-14.822 0-9.564-6.768-14.206-15.773-14.206zm10.515 20.638V15.025h2.964c4.14 0 8.054 1.398 8.054 6.153 0 4.698-3.915 6.096-8.054 6.096zM35.18 29.679c0 13.48 9.62 23.938 23.268 23.938 13.255 0 23.21-10.459 23.21-23.938 0-13.48-10.402-23.882-23.21-23.882C45.75 5.797 35.18 16.2 35.18 29.679zm11.354 0c0-6.88 3.804-13.759 11.914-13.759 8.165 0 11.857 6.88 11.857 13.759 0 6.88-3.468 13.759-11.857 13.759-8.614 0-11.914-6.88-11.914-13.759zM103.304 5.797c-7.439 0-15.045 5.48-15.045 14.094 0 4.81 3.244 9.117 8.78 11.857 5.482 2.741 10.404 4.251 10.404 7.607 0 4.307-4.363 4.53-6.656 4.53-5.146 0-11.298-5.201-11.298-5.201l-5.257 8.837s6.544 6.096 17.338 6.096c9.005 0 17.395-3.859 17.395-14.877 0-6.04-5.65-10.403-10.795-12.585-5.258-2.237-9.62-4.083-9.62-6.655 0-2.517 1.902-4.14 5.481-4.14 4.754 0 9.34 3.189 9.34 3.189l4.251-8.39s-5.928-4.362-14.318-4.362z" style="-inkscape-font-specification:'League Spartan, Normal';font-variant-ligatures:normal;font-variant-caps:normal;font-variant-numeric:normal;font-variant-east-asian:normal"/></g><rect width="79.048" height="59.414" x="128.402" ry="2.039" fill="#7874f7"/><g style="line-height:1.25"><path d="M175.337 52.778h11.634l13.143-46.142h-11.633l-7.887 31.656h-.28l-8.389-31.656h-7.942l-8.39 31.656h-.28l-7.885-31.656h-11.69l13.144 46.142h11.69l7.382-25.896z" style="-inkscape-font-specification:'League Spartan, Normal';font-variant-ligatures:normal;font-variant-caps:normal;font-variant-numeric:normal;font-variant-east-asian:normal" font-size="55.931" font-family="League Spartan" aria-label="W" font-weight="400" fill="#fff" stroke-width=".583"/></g></svg>